<svg xmlns="http://www.w3.org/2000/svg" width="138.9" height="33" viewBox="0 0 138.9 33"><defs><style>.a{fill:none;stroke:#000;stroke-linecap:round;stroke-linejoin:round;stroke-width:3px;}</style></defs><g transform="translate(-151.909 -928.5)"><path class="a" d="M27,3H22.5A7.5,7.5,0,0,0,15,10.5V15H10.5v6H15V33h6V21h4.5L27,15H21V10.5A1.5,1.5,0,0,1,22.5,9H27Z" transform="translate(201.159 927)"/><g transform="translate(150.409 927)"><path class="a" d="M10.5,3h15A7.5,7.5,0,0,1,33,10.5v15A7.5,7.5,0,0,1,25.5,33h-15A7.5,7.5,0,0,1,3,25.5v-15A7.5,7.5,0,0,1,10.5,3Z"/><path class="a" d="M24,17.055A6,6,0,1,1,18.945,12,6,6,0,0,1,24,17.055Z"/><path class="a" d="M26.25,9.75h0"/></g><path class="a" d="M34.5,4.5a16.35,16.35,0,0,1-4.71,2.3A6.72,6.72,0,0,0,18,11.295v1.5A15.99,15.99,0,0,1,4.5,6s-6,13.5,7.5,19.5a17.46,17.46,0,0,1-10.5,3c13.5,7.5,30,0,30-17.25A6.75,6.75,0,0,0,31.38,10,11.58,11.58,0,0,0,34.5,4.5Z" transform="translate(254.809 927.057)"/></g></svg>